# Blender v2.78 (sub 0) OBJ File: ''
# www.blender.org
v 1.000000 -1.000000 -1.000000
v -1.000000 -1.000000 -1.000000
v -1.000000 -1.000000 1.000000
v 1.000000 -1.000000 1.000000
v 1.000000 1.000000 -1.000000
v 0.999999 1.000000 1.000001
v -1.000000 1.000000 1.000000
v -1.000000 1.000000 -1.000000
vt 0.2507 0.3342
vt 0.4995 0.0005
vt 0.2504 0.0005
vt 0.4990 0.9987
vt 0.2516 0.6648
vt 0.2513 0.9992
vt 0.7509 0.3348
vt 0.9999 0.6651
vt 0.9999 0.3347
vt 0.4995 0.3347
vt 0.7510 0.6650
vt 0.4986 0.6647
vt 0.0004 0.3339
vt 0.0002 0.6644
vn 0.0000 1.0000 0.0000
vn 0.0000 -1.0000 -0.0000
vn -1.0000 -0.0000 -0.0000
vn 0.0000 0.0000 -1.0000
vn 1.0000 -0.0000 0.0000
vn 0.0000 -0.0000 1.0000
s 1
f 2/1/1 4/2/1 1/3/1
f 6/4/2 8/5/2 5/6/2
f 4/7/3 5/8/3 1/9/3
f 3/10/4 6/11/4 4/7/4
f 2/1/5 7/12/5 3/10/5
f 1/13/6 8/5/6 2/1/6
f 2/1/1 3/10/1 4/2/1
f 6/4/2 7/12/2 8/5/2
f 4/7/3 6/11/3 5/8/3
f 3/10/4 7/12/4 6/11/4
f 2/1/5 8/5/5 7/12/5
f 1/13/6 5/14/6 8/5/6
